<?xml version="1.0" encoding="utf-8"?>
<!-- Generator: Adobe Illustrator 22.1.0, SVG Export Plug-In . SVG Version: 6.00 Build 0)  -->
<svg version="1.1" id="Capa_1" xmlns="http://www.w3.org/2000/svg" xmlns:xlink="http://www.w3.org/1999/xlink" x="0px" y="0px"
	 viewBox="0 0 60.8 103.3" style="enable-background:new 0 0 60.8 103.3;" xml:space="preserve">
<style type="text/css">
	.st0{fill:#259F29;}
	.st1{fill:none;stroke:#FFFFFF;}
	.st2{fill:#FFFFFF;}
</style>
<g transform="matrix(1, 0, 0, 1, 503.1, 870.4)">
	<g transform="translate(27 24)">
		<path class="st0" d="M-500.1-893.2L-500.1-893.2c16.6,0,30,13.4,30,30v41c0,16.6-13.4,30-30,30l0,0c-16.6,0-30-13.4-30-30v-41
			C-530.1-879.8-516.7-893.2-500.1-893.2z"/>
		<path class="st1" d="M-500.1-892.7L-500.1-892.7c16.3,0,29.5,13.2,29.5,29.5v41c0,16.3-13.2,29.5-29.5,29.5l0,0
			c-16.3,0-29.5-13.2-29.5-29.5v-41C-529.6-879.5-516.4-892.7-500.1-892.7z"/>
	</g>
</g>
<g transform="translate(545.096 912.229)">
	<path class="st2" d="M-514.1-897.5c-8.6,0-15.5,6.9-15.5,15.5l0,0c0.1,2.8,0.9,5.6,2.2,8l-2.7,8.3l8.5-2.7c2.3,1.2,4.9,1.9,7.5,1.9
		c8.6,0,15.5-6.9,15.5-15.5S-505.6-897.5-514.1-897.5L-514.1-897.5z M-514.1-869c-2.5-0.1-5-0.8-7.2-2.2l-4.9,1.6l1.6-4.7
		c-1.6-2.3-2.4-5-2.5-7.7c0-7.2,5.8-13,13-13c7.2,0,13,5.8,13,13C-501.1-874.8-506.9-869-514.1-869L-514.1-869z"/>
	<path class="st2" d="M-520-888.7c0.2-0.1,0.4-0.2,0.6-0.3h1.2c0.2,0.1,0.4,0.2,0.5,0.4c0.2,0.3,1.2,2.8,1.3,2.9
		c0.2,0.3,0.2,0.7,0,1.1c-0.3,0.4-1,1.2-1,1.2c-0.2,0.2-0.2,0.4,0,0.6c0.6,1,1.3,1.8,2.1,2.6c0.9,0.8,1.9,1.4,3,1.9
		c0.6,0.2,0.8-0.1,1-0.4s1-1.3,1-1.3c0.2-0.2,0.5-0.3,0.8-0.2c0.5,0.2,3.1,1.5,3.1,1.5c0.2,0,0.3,0.2,0.3,0.4
		c0.2,0.9-0.1,1.7-0.7,2.4c-1,1-2.4,1.4-3.8,1.2c-2.2-0.5-4.2-1.5-6-2.9c-1.7-1.5-3.2-3.3-4.3-5.3c-0.4-0.8-0.6-1.8-0.6-2.7
		C-521.5-886.9-520.9-888-520-888.7z"/>
</g>
<g id="ESCRIBE_A_NUESTRO_WHATSAPP">
	<path class="st2" d="M12.9,61.1c-0.1-0.1-0.1-0.2-0.1-0.4v-5.2c0-0.2,0-0.3,0.1-0.4c0.1-0.1,0.2-0.1,0.4-0.1h3.2
		c0.2,0,0.3,0,0.4,0.1c0.1,0.1,0.1,0.2,0.1,0.3c0,0.1,0,0.3-0.1,0.3c-0.1,0.1-0.2,0.1-0.4,0.1h-2.7v1.7h2.5c0.2,0,0.3,0,0.4,0.1
		c0.1,0.1,0.1,0.2,0.1,0.3c0,0.1,0,0.3-0.1,0.3c-0.1,0.1-0.2,0.1-0.4,0.1h-2.5v1.9h2.7c0.2,0,0.3,0,0.4,0.1c0.1,0.1,0.1,0.2,0.1,0.3
		c0,0.1,0,0.3-0.1,0.3c-0.1,0.1-0.2,0.1-0.4,0.1h-3.2C13.2,61.3,13,61.2,12.9,61.1z"/>
	<path class="st2" d="M18.9,61.2c-0.4-0.1-0.7-0.3-1-0.5c-0.1-0.1-0.2-0.2-0.2-0.4c0-0.1,0-0.2,0.1-0.3c0.1-0.1,0.2-0.1,0.3-0.1
		c0.1,0,0.2,0,0.4,0.1c0.3,0.2,0.5,0.3,0.8,0.4c0.3,0.1,0.6,0.1,0.9,0.1c0.4,0,0.8-0.1,1-0.2c0.2-0.2,0.4-0.4,0.4-0.7
		c0-0.2-0.1-0.4-0.3-0.5c-0.2-0.1-0.6-0.2-1.1-0.4c-0.5-0.1-1-0.2-1.3-0.4c-0.3-0.1-0.6-0.3-0.7-0.6c-0.2-0.2-0.3-0.5-0.3-0.9
		c0-0.4,0.1-0.7,0.3-1c0.2-0.3,0.5-0.5,0.9-0.7c0.4-0.2,0.8-0.2,1.3-0.2c0.9,0,1.6,0.2,2.1,0.7c0.1,0.1,0.1,0.1,0.2,0.2
		c0,0.1,0,0.1,0,0.2c0,0.1,0,0.2-0.1,0.3c-0.1,0.1-0.2,0.1-0.3,0.1c-0.1,0-0.1,0-0.2,0c-0.1,0-0.1-0.1-0.2-0.1
		c-0.2-0.2-0.5-0.3-0.7-0.4c-0.2-0.1-0.5-0.1-0.9-0.1c-0.4,0-0.7,0.1-1,0.2c-0.2,0.2-0.4,0.4-0.4,0.7c0,0.2,0.1,0.4,0.3,0.6
		c0.2,0.1,0.6,0.3,1.1,0.4c0.5,0.1,1,0.3,1.3,0.4c0.3,0.1,0.6,0.3,0.8,0.6c0.2,0.2,0.3,0.5,0.3,0.9c0,0.4-0.1,0.7-0.3,1
		s-0.5,0.5-0.9,0.7c-0.4,0.2-0.8,0.2-1.3,0.2C19.7,61.3,19.3,61.3,18.9,61.2z"/>
	<path class="st2" d="M25,61c-0.5-0.3-0.8-0.6-1.1-1.1c-0.2-0.5-0.4-1.1-0.4-1.7s0.1-1.2,0.4-1.7s0.6-0.9,1.1-1.1
		c0.5-0.3,1-0.4,1.6-0.4c0.4,0,0.8,0.1,1.1,0.2c0.3,0.1,0.7,0.3,0.9,0.5c0.1,0.1,0.1,0.1,0.2,0.2c0,0.1,0,0.1,0,0.2
		c0,0.1,0,0.2-0.1,0.3c-0.1,0.1-0.2,0.1-0.3,0.1c-0.1,0-0.2,0-0.4-0.1c-0.3-0.2-0.5-0.3-0.7-0.4c-0.2-0.1-0.5-0.1-0.7-0.1
		c-0.6,0-1.1,0.2-1.4,0.6c-0.3,0.4-0.5,1-0.5,1.7c0,0.8,0.2,1.3,0.5,1.7c0.3,0.4,0.8,0.6,1.4,0.6c0.3,0,0.5,0,0.7-0.1
		c0.2-0.1,0.5-0.2,0.7-0.4c0.1,0,0.1-0.1,0.2-0.1c0.1,0,0.1,0,0.2,0c0.1,0,0.2,0,0.3,0.1c0.1,0.1,0.1,0.2,0.1,0.3c0,0.1,0,0.2,0,0.2
		c0,0.1-0.1,0.1-0.2,0.2c-0.3,0.2-0.6,0.4-0.9,0.5c-0.3,0.1-0.7,0.2-1.1,0.2C26,61.3,25.4,61.2,25,61z"/>
	<path class="st2" d="M35,60.9c0,0.1-0.1,0.3-0.2,0.3c-0.1,0.1-0.2,0.1-0.4,0.1c-0.1,0-0.2,0-0.3-0.1c-0.1,0-0.2-0.1-0.2-0.2
		l-1.2-1.8c-0.1-0.2-0.2-0.3-0.4-0.4c-0.1-0.1-0.3-0.1-0.5-0.1H31v2c0,0.2-0.1,0.3-0.2,0.4s-0.2,0.2-0.4,0.2c-0.2,0-0.3-0.1-0.4-0.2
		s-0.2-0.2-0.2-0.4v-5.3c0-0.2,0-0.3,0.1-0.4c0.1-0.1,0.2-0.1,0.4-0.1h2.2c0.7,0,1.3,0.2,1.6,0.5c0.4,0.3,0.6,0.8,0.6,1.4
		c0,0.5-0.1,0.9-0.4,1.2c-0.3,0.3-0.7,0.5-1.2,0.6c0.2,0,0.3,0.1,0.5,0.2c0.1,0.1,0.3,0.3,0.4,0.4l0.8,1.3C35,60.6,35,60.8,35,60.9z
		 M33.5,57.6c0.2-0.2,0.3-0.4,0.3-0.8c0-0.3-0.1-0.6-0.3-0.8c-0.2-0.2-0.5-0.2-1-0.2H31v2h1.5C32.9,57.8,33.2,57.7,33.5,57.6z"/>
	<path class="st2" d="M36.3,61.2c-0.1-0.1-0.2-0.2-0.2-0.4v-5.3c0-0.2,0.1-0.3,0.2-0.4s0.2-0.2,0.4-0.2c0.2,0,0.3,0.1,0.4,0.2
		s0.2,0.2,0.2,0.4v5.3c0,0.2-0.1,0.3-0.2,0.4c-0.1,0.1-0.2,0.2-0.4,0.2C36.5,61.3,36.4,61.3,36.3,61.2z"/>
	<path class="st2" d="M43.4,58.5c0.2,0.3,0.3,0.6,0.3,1c0,0.5-0.2,1-0.6,1.3c-0.4,0.3-0.9,0.5-1.6,0.5h-2.3c-0.2,0-0.3,0-0.4-0.1
		c-0.1-0.1-0.1-0.2-0.1-0.4v-5.2c0-0.2,0-0.3,0.1-0.4c0.1-0.1,0.2-0.1,0.4-0.1h2.2c0.7,0,1.2,0.1,1.6,0.4c0.4,0.3,0.6,0.7,0.6,1.2
		c0,0.3-0.1,0.6-0.3,0.9c-0.2,0.2-0.4,0.4-0.7,0.5C42.9,58.1,43.2,58.3,43.4,58.5z M39.8,57.6h1.5c0.8,0,1.2-0.3,1.2-0.9
		c0-0.3-0.1-0.5-0.3-0.7c-0.2-0.1-0.5-0.2-0.9-0.2h-1.5V57.6z M42.3,60.1c0.2-0.2,0.3-0.4,0.3-0.7c0-0.3-0.1-0.6-0.3-0.7
		c-0.2-0.2-0.5-0.2-0.9-0.2h-1.6v1.9h1.6C41.8,60.4,42.1,60.3,42.3,60.1z"/>
	<path class="st2" d="M44.9,61.1c-0.1-0.1-0.1-0.2-0.1-0.4v-5.2c0-0.2,0-0.3,0.1-0.4c0.1-0.1,0.2-0.1,0.4-0.1h3.2
		c0.2,0,0.3,0,0.4,0.1c0.1,0.1,0.1,0.2,0.1,0.3c0,0.1,0,0.3-0.1,0.3c-0.1,0.1-0.2,0.1-0.4,0.1h-2.7v1.7h2.5c0.2,0,0.3,0,0.4,0.1
		c0.1,0.1,0.1,0.2,0.1,0.3c0,0.1,0,0.3-0.1,0.3c-0.1,0.1-0.2,0.1-0.4,0.1h-2.5v1.9h2.7c0.2,0,0.3,0,0.4,0.1c0.1,0.1,0.1,0.2,0.1,0.3
		c0,0.1,0,0.3-0.1,0.3c-0.1,0.1-0.2,0.1-0.4,0.1h-3.2C45.2,61.3,45,61.2,44.9,61.1z"/>
	<path class="st2" d="M11.2,70.8c0,0.1-0.1,0.3-0.2,0.4c-0.1,0.1-0.2,0.1-0.4,0.1c-0.1,0-0.2,0-0.3-0.1c-0.1-0.1-0.1-0.1-0.2-0.2
		l-0.5-1.2H6.5L6,71c0,0.1-0.1,0.2-0.2,0.2c-0.1,0.1-0.2,0.1-0.3,0.1c-0.1,0-0.3,0-0.4-0.1c-0.1-0.1-0.2-0.2-0.2-0.4
		c0-0.1,0-0.2,0.1-0.2l2.5-5.3C7.5,65.1,7.6,65,7.7,65c0.1-0.1,0.2-0.1,0.4-0.1s0.2,0,0.4,0.1c0.1,0.1,0.2,0.2,0.2,0.3l2.5,5.3
		C11.2,70.7,11.2,70.7,11.2,70.8z M6.9,68.9h2.4l-1.2-2.7L6.9,68.9z"/>
	<path class="st2" d="M19.8,65c0.1,0.1,0.1,0.2,0.1,0.4v5.3c0,0.2-0.1,0.3-0.2,0.4c-0.1,0.1-0.2,0.2-0.4,0.2c-0.2,0-0.3-0.1-0.4-0.2
		l-3.3-4.3v3.9c0,0.2,0,0.3-0.1,0.4c-0.1,0.1-0.2,0.2-0.4,0.2s-0.3-0.1-0.4-0.2c-0.1-0.1-0.1-0.2-0.1-0.4v-5.3
		c0-0.2,0.1-0.3,0.2-0.4c0.1-0.1,0.2-0.2,0.4-0.2c0.2,0,0.3,0.1,0.4,0.2l3.3,4.3v-3.9c0-0.2,0-0.3,0.1-0.4c0.1-0.1,0.2-0.2,0.4-0.2
		C19.5,64.9,19.7,64.9,19.8,65z"/>
	<path class="st2" d="M21.9,70.7c-0.5-0.5-0.7-1.1-0.7-2v-3.2c0-0.2,0.1-0.3,0.2-0.4c0.1-0.1,0.2-0.2,0.4-0.2c0.2,0,0.3,0.1,0.4,0.2
		c0.1,0.1,0.2,0.2,0.2,0.4v3.3c0,0.5,0.1,1,0.4,1.2s0.6,0.4,1.1,0.4c0.5,0,0.9-0.1,1.1-0.4c0.3-0.3,0.4-0.7,0.4-1.2v-3.3
		c0-0.2,0.1-0.3,0.2-0.4c0.1-0.1,0.2-0.2,0.4-0.2c0.2,0,0.3,0.1,0.4,0.2c0.1,0.1,0.2,0.2,0.2,0.4v3.2c0,0.9-0.2,1.5-0.7,2
		c-0.4,0.5-1.1,0.7-2,0.7C23,71.3,22.4,71.1,21.9,70.7z"/>
	<path class="st2" d="M28,71.1c-0.1-0.1-0.1-0.2-0.1-0.4v-5.2c0-0.2,0-0.3,0.1-0.4c0.1-0.1,0.2-0.1,0.4-0.1h3.2c0.2,0,0.3,0,0.4,0.1
		c0.1,0.1,0.1,0.2,0.1,0.3c0,0.1,0,0.3-0.1,0.3c-0.1,0.1-0.2,0.1-0.4,0.1H29v1.7h2.5c0.2,0,0.3,0,0.4,0.1C32,67.8,32,67.9,32,68
		c0,0.1,0,0.3-0.1,0.3c-0.1,0.1-0.2,0.1-0.4,0.1H29v1.9h2.7c0.2,0,0.3,0,0.4,0.1c0.1,0.1,0.1,0.2,0.1,0.3c0,0.1,0,0.3-0.1,0.3
		c-0.1,0.1-0.2,0.1-0.4,0.1h-3.2C28.3,71.3,28.1,71.2,28,71.1z"/>
	<path class="st2" d="M34,71.2c-0.4-0.1-0.7-0.3-1-0.5c-0.1-0.1-0.2-0.2-0.2-0.4c0-0.1,0-0.2,0.1-0.3c0.1-0.1,0.2-0.1,0.3-0.1
		c0.1,0,0.2,0,0.4,0.1c0.3,0.2,0.5,0.3,0.8,0.4c0.3,0.1,0.6,0.1,0.9,0.1c0.4,0,0.8-0.1,1-0.2c0.2-0.2,0.4-0.4,0.4-0.7
		c0-0.2-0.1-0.4-0.3-0.5c-0.2-0.1-0.6-0.2-1.1-0.4c-0.5-0.1-1-0.2-1.3-0.4c-0.3-0.1-0.6-0.3-0.7-0.6c-0.2-0.2-0.3-0.5-0.3-0.9
		c0-0.4,0.1-0.7,0.3-1s0.5-0.5,0.9-0.7s0.8-0.2,1.3-0.2c0.9,0,1.6,0.2,2.1,0.7c0.1,0.1,0.1,0.1,0.2,0.2c0,0.1,0,0.1,0,0.2
		c0,0.1,0,0.2-0.1,0.3c-0.1,0.1-0.2,0.1-0.3,0.1c-0.1,0-0.1,0-0.2,0c-0.1,0-0.1-0.1-0.2-0.1c-0.2-0.2-0.5-0.3-0.7-0.4
		s-0.5-0.1-0.9-0.1c-0.4,0-0.7,0.1-1,0.2c-0.2,0.2-0.4,0.4-0.4,0.7c0,0.2,0.1,0.4,0.3,0.6c0.2,0.1,0.6,0.3,1.1,0.4
		c0.5,0.1,1,0.3,1.3,0.4c0.3,0.1,0.6,0.3,0.8,0.6c0.2,0.2,0.3,0.5,0.3,0.9c0,0.4-0.1,0.7-0.3,1s-0.5,0.5-0.9,0.7
		c-0.4,0.2-0.8,0.2-1.3,0.2C34.8,71.3,34.4,71.3,34,71.2z"/>
	<path class="st2" d="M40.3,71.2c-0.1-0.1-0.2-0.2-0.2-0.4v-4.9h-1.6c-0.4,0-0.5-0.2-0.5-0.5c0-0.3,0.2-0.5,0.5-0.5H43
		c0.4,0,0.5,0.2,0.5,0.5c0,0.3-0.2,0.5-0.5,0.5h-1.6v4.9c0,0.2-0.1,0.3-0.2,0.4c-0.1,0.1-0.2,0.2-0.4,0.2
		C40.6,71.3,40.4,71.3,40.3,71.2z"/>
	<path class="st2" d="M49.4,70.9c0,0.1-0.1,0.3-0.2,0.3c-0.1,0.1-0.2,0.1-0.4,0.1c-0.1,0-0.2,0-0.3-0.1c-0.1,0-0.2-0.1-0.2-0.2
		l-1.2-1.8c-0.1-0.2-0.2-0.3-0.4-0.4c-0.1-0.1-0.3-0.1-0.5-0.1h-0.9v2c0,0.2-0.1,0.3-0.2,0.4s-0.2,0.2-0.4,0.2
		c-0.2,0-0.3-0.1-0.4-0.2s-0.2-0.2-0.2-0.4v-5.3c0-0.2,0-0.3,0.1-0.4c0.1-0.1,0.2-0.1,0.4-0.1H47c0.7,0,1.3,0.2,1.6,0.5
		s0.6,0.8,0.6,1.4c0,0.5-0.1,0.9-0.4,1.2c-0.3,0.3-0.7,0.5-1.2,0.6c0.2,0,0.3,0.1,0.5,0.2c0.1,0.1,0.3,0.3,0.4,0.4l0.8,1.3
		C49.4,70.6,49.4,70.8,49.4,70.9z M47.8,67.6c0.2-0.2,0.3-0.4,0.3-0.8c0-0.3-0.1-0.6-0.3-0.8c-0.2-0.2-0.5-0.2-1-0.2h-1.5v2h1.5
		C47.3,67.8,47.6,67.7,47.8,67.6z"/>
	<path class="st2" d="M51.6,71c-0.5-0.3-0.8-0.6-1-1.1c-0.2-0.5-0.4-1.1-0.4-1.7s0.1-1.2,0.4-1.7c0.2-0.5,0.6-0.9,1-1.1
		c0.5-0.3,1-0.4,1.6-0.4c0.6,0,1.2,0.1,1.6,0.4c0.5,0.3,0.8,0.6,1,1.1c0.2,0.5,0.4,1.1,0.4,1.7s-0.1,1.2-0.4,1.7
		c-0.2,0.5-0.6,0.9-1,1.1c-0.5,0.3-1,0.4-1.6,0.4C52.6,71.3,52.1,71.2,51.6,71z M54.6,69.8c0.3-0.4,0.5-1,0.5-1.7s-0.2-1.3-0.5-1.7
		c-0.3-0.4-0.8-0.6-1.4-0.6c-0.6,0-1,0.2-1.4,0.6c-0.3,0.4-0.5,1-0.5,1.7s0.2,1.3,0.5,1.7c0.3,0.4,0.8,0.6,1.4,0.6
		C53.8,70.4,54.3,70.2,54.6,69.8z"/>
	<path class="st2" d="M13.4,75c0.1-0.1,0.2-0.1,0.3-0.1c0.1,0,0.3,0,0.4,0.1s0.2,0.2,0.2,0.4c0,0.1,0,0.1,0,0.2L12.3,81
		c0,0.1-0.1,0.2-0.2,0.3c-0.1,0.1-0.2,0.1-0.4,0.1c-0.1,0-0.3,0-0.4-0.1c-0.1-0.1-0.2-0.2-0.2-0.3l-1.5-4.2L8.1,81
		c0,0.1-0.1,0.2-0.2,0.3c-0.1,0.1-0.2,0.1-0.4,0.1s-0.3,0-0.4-0.1C7,81.2,6.9,81.1,6.9,81l-1.9-5.4c0-0.1,0-0.2,0-0.2
		c0-0.1,0.1-0.3,0.2-0.4c0.1-0.1,0.2-0.1,0.4-0.1c0.1,0,0.2,0,0.3,0.1C5.9,75,5.9,75.1,6,75.2l1.5,4.4l1.6-4.4
		c0-0.1,0.1-0.2,0.2-0.3c0.1-0.1,0.2-0.1,0.3-0.1c0.1,0,0.2,0,0.3,0.1c0.1,0.1,0.2,0.2,0.2,0.3l1.5,4.4l1.6-4.5
		C13.3,75.1,13.3,75,13.4,75z"/>
	<path class="st2" d="M20.6,75c0.1,0.1,0.2,0.2,0.2,0.4v5.3c0,0.2-0.1,0.3-0.2,0.4c-0.1,0.1-0.2,0.2-0.4,0.2c-0.2,0-0.3-0.1-0.4-0.2
		c-0.1-0.1-0.2-0.2-0.2-0.4v-2.2h-3.2v2.2c0,0.2-0.1,0.3-0.2,0.4c-0.1,0.1-0.2,0.2-0.4,0.2c-0.2,0-0.3-0.1-0.4-0.2
		c-0.1-0.1-0.2-0.2-0.2-0.4v-5.3c0-0.2,0.1-0.3,0.2-0.4c0.1-0.1,0.2-0.2,0.4-0.2s0.3,0.1,0.4,0.2c0.1,0.1,0.2,0.2,0.2,0.4v2.1h3.2
		v-2.1c0-0.2,0.1-0.3,0.2-0.4c0.1-0.1,0.2-0.2,0.4-0.2C20.4,74.9,20.5,74.9,20.6,75z"/>
	<path class="st2" d="M28,80.8c0,0.1-0.1,0.3-0.2,0.4c-0.1,0.1-0.2,0.1-0.4,0.1c-0.1,0-0.2,0-0.3-0.1C27,81.2,27,81.1,26.9,81
		l-0.5-1.2h-3.2L22.7,81c0,0.1-0.1,0.2-0.2,0.2c-0.1,0.1-0.2,0.1-0.3,0.1c-0.1,0-0.3,0-0.4-0.1c-0.1-0.1-0.2-0.2-0.2-0.4
		c0-0.1,0-0.2,0.1-0.2l2.5-5.3c0.1-0.1,0.1-0.2,0.2-0.3c0.1-0.1,0.2-0.1,0.4-0.1s0.2,0,0.4,0.1c0.1,0.1,0.2,0.2,0.2,0.3l2.5,5.3
		C27.9,80.7,28,80.7,28,80.8z M23.6,78.9H26l-1.2-2.7L23.6,78.9z"/>
	<path class="st2" d="M29.7,81.2c-0.1-0.1-0.2-0.2-0.2-0.4v-4.9h-1.6c-0.4,0-0.5-0.2-0.5-0.5c0-0.3,0.2-0.5,0.5-0.5h4.4
		c0.4,0,0.5,0.2,0.5,0.5c0,0.3-0.2,0.5-0.5,0.5h-1.6v4.9c0,0.2-0.1,0.3-0.2,0.4c-0.1,0.1-0.2,0.2-0.4,0.2
		C29.9,81.3,29.8,81.3,29.7,81.2z"/>
	<path class="st2" d="M34.2,81.2c-0.4-0.1-0.7-0.3-1-0.5c-0.1-0.1-0.2-0.2-0.2-0.4c0-0.1,0-0.2,0.1-0.3c0.1-0.1,0.2-0.1,0.3-0.1
		c0.1,0,0.2,0,0.4,0.1c0.3,0.2,0.5,0.3,0.8,0.4c0.3,0.1,0.6,0.1,0.9,0.1c0.4,0,0.8-0.1,1-0.2c0.2-0.2,0.4-0.4,0.4-0.7
		c0-0.2-0.1-0.4-0.3-0.5c-0.2-0.1-0.6-0.2-1.1-0.4c-0.5-0.1-1-0.2-1.3-0.4c-0.3-0.1-0.6-0.3-0.7-0.6c-0.2-0.2-0.3-0.5-0.3-0.9
		c0-0.4,0.1-0.7,0.3-1s0.5-0.5,0.9-0.7s0.8-0.2,1.3-0.2c0.9,0,1.6,0.2,2.1,0.7c0.1,0.1,0.1,0.1,0.2,0.2c0,0.1,0,0.1,0,0.2
		c0,0.1,0,0.2-0.1,0.3c-0.1,0.1-0.2,0.1-0.3,0.1c-0.1,0-0.1,0-0.2,0c-0.1,0-0.1-0.1-0.2-0.1c-0.2-0.2-0.5-0.3-0.7-0.4
		s-0.5-0.1-0.9-0.1c-0.4,0-0.7,0.1-1,0.2c-0.2,0.2-0.4,0.4-0.4,0.7c0,0.2,0.1,0.4,0.3,0.6c0.2,0.1,0.6,0.3,1.1,0.4
		c0.5,0.1,1,0.3,1.3,0.4c0.3,0.1,0.6,0.3,0.8,0.6c0.2,0.2,0.3,0.5,0.3,0.9c0,0.4-0.1,0.7-0.3,1s-0.5,0.5-0.9,0.7
		c-0.4,0.2-0.8,0.2-1.3,0.2C35.1,81.3,34.7,81.3,34.2,81.2z"/>
	<path class="st2" d="M44.8,80.8c0,0.1-0.1,0.3-0.2,0.4c-0.1,0.1-0.2,0.1-0.4,0.1c-0.1,0-0.2,0-0.3-0.1c-0.1-0.1-0.1-0.1-0.2-0.2
		l-0.5-1.2h-3.2L39.6,81c0,0.1-0.1,0.2-0.2,0.2c-0.1,0.1-0.2,0.1-0.3,0.1c-0.1,0-0.3,0-0.4-0.1c-0.1-0.1-0.2-0.2-0.2-0.4
		c0-0.1,0-0.2,0.1-0.2l2.5-5.3c0.1-0.1,0.1-0.2,0.2-0.3c0.1-0.1,0.2-0.1,0.4-0.1s0.2,0,0.4,0.1c0.1,0.1,0.2,0.2,0.2,0.3l2.5,5.3
		C44.8,80.7,44.8,80.7,44.8,80.8z M40.5,78.9h2.4l-1.2-2.7L40.5,78.9z"/>
	<path class="st2" d="M45.9,81.2c-0.1-0.1-0.2-0.2-0.2-0.4v-5.3c0-0.2,0-0.3,0.1-0.4c0.1-0.1,0.2-0.1,0.4-0.1h2.2
		c0.7,0,1.2,0.2,1.6,0.5c0.4,0.3,0.6,0.8,0.6,1.4s-0.2,1.1-0.6,1.4c-0.4,0.3-0.9,0.5-1.6,0.5h-1.6v1.9c0,0.2-0.1,0.3-0.2,0.4
		s-0.2,0.2-0.4,0.2C46.1,81.3,46,81.3,45.9,81.2z M49.5,76.9c0-0.7-0.4-1-1.2-1h-1.5v2.1h1.5C49.1,77.9,49.5,77.6,49.5,76.9z"/>
	<path class="st2" d="M51.8,81.2c-0.1-0.1-0.2-0.2-0.2-0.4v-5.3c0-0.2,0-0.3,0.1-0.4c0.1-0.1,0.2-0.1,0.4-0.1h2.2
		c0.7,0,1.2,0.2,1.6,0.5c0.4,0.3,0.6,0.8,0.6,1.4s-0.2,1.1-0.6,1.4c-0.4,0.3-0.9,0.5-1.6,0.5h-1.6v1.9c0,0.2-0.1,0.3-0.2,0.4
		s-0.2,0.2-0.4,0.2C52.1,81.3,51.9,81.3,51.8,81.2z M55.5,76.9c0-0.7-0.4-1-1.2-1h-1.5v2.1h1.5C55.1,77.9,55.5,77.6,55.5,76.9z"/>
</g>
</svg>
