<?xml version="1.0" encoding="utf-8"?>
<!-- Generator: Adobe Illustrator 22.1.0, SVG Export Plug-In . SVG Version: 6.00 Build 0)  -->
<svg version="1.1" id="Capa_1" xmlns="http://www.w3.org/2000/svg" xmlns:xlink="http://www.w3.org/1999/xlink" x="0px" y="0px"
	 viewBox="0 0 60 106.1" style="enable-background:new 0 0 60 106.1;" xml:space="preserve">
<style type="text/css">
	.st0{fill:#259F29;}
	.st1{fill:none;stroke:#FFFFFF;}
	.st2{fill:#FFFFFF;}
	.st3{font-family:'Nunito-Regular';}
	.st4{font-size:8.5px;}
</style>
<g transform="matrix(1, 0, 0, 1, 503.1, 870.4)">
	<g transform="translate(27 24)">
		<path class="st0" d="M-500.1-890.7L-500.1-890.7c16.6,0,30,13.4,30,30v41c0,16.6-13.4,30-30,30l0,0c-16.6,0-30-13.4-30-30v-41
			C-530.1-877.3-516.7-890.7-500.1-890.7z"/>
		<path class="st1" d="M-500.1-890.2L-500.1-890.2c16.3,0,29.5,13.2,29.5,29.5v41c0,16.3-13.2,29.5-29.5,29.5l0,0
			c-16.3,0-29.5-13.2-29.5-29.5v-41C-529.6-877-516.4-890.2-500.1-890.2z"/>
	</g>
</g>
<g transform="translate(545.096 912.229)">
	<path class="st2" d="M-514.1-894.7c-8.6,0-15.5,6.9-15.5,15.5l0,0c0.1,2.8,0.9,5.6,2.2,8l-2.7,8.3l8.5-2.7c2.3,1.2,4.9,1.9,7.5,1.9
		c8.6,0,15.5-6.9,15.5-15.5S-505.6-894.7-514.1-894.7L-514.1-894.7z M-514.1-866.2c-2.5-0.1-5-0.8-7.2-2.2l-4.9,1.6l1.6-4.7
		c-1.6-2.3-2.4-5-2.5-7.7c0-7.2,5.8-13,13-13s13,5.8,13,13C-501.1-872-506.9-866.2-514.1-866.2L-514.1-866.2z"/>
	<path class="st2" d="M-520-885.9c0.2-0.1,0.4-0.2,0.6-0.3h1.2c0.2,0.1,0.4,0.2,0.5,0.4c0.2,0.3,1.2,2.8,1.3,2.9
		c0.2,0.3,0.2,0.7,0,1.1c-0.3,0.4-1,1.2-1,1.2c-0.2,0.2-0.2,0.4,0,0.6c0.6,1,1.3,1.8,2.1,2.6c0.9,0.8,1.9,1.4,3,1.9
		c0.6,0.2,0.8-0.1,1-0.4s1-1.3,1-1.3c0.2-0.2,0.5-0.3,0.8-0.2c0.5,0.2,3.1,1.5,3.1,1.5c0.2,0,0.3,0.2,0.3,0.4
		c0.2,0.9-0.1,1.7-0.7,2.4c-1,1-2.4,1.4-3.8,1.2c-2.2-0.5-4.2-1.5-6-2.9c-1.7-1.5-3.2-3.3-4.3-5.3c-0.4-0.8-0.6-1.8-0.6-2.7
		C-521.5-884.1-520.9-885.2-520-885.9z"/>
</g>
<text transform="matrix(1.0498 0 0 1 11.8716 64.4692)" class="st2 st3 st4">E</text>
<text transform="matrix(1.0498 0 0 1 17.0156 64.4692)" class="st2 st3 st4">SCRIBE</text>
<text transform="matrix(1.0498 0 0 1 4.7329 73.4692)" class="st2 st3 st4">A NU</text>
<text transform="matrix(1.0498 0 0 1 26.5688 73.4692)" class="st2 st3 st4">E</text>
<text transform="matrix(1.0498 0 0 1 31.7129 73.4692)" class="st2 st3 st4">S</text>
<text transform="matrix(1.0498 0 0 1 37.0669 73.4692)" class="st2 st3 st4">T</text>
<text transform="matrix(1.0498 0 0 1 42.4209 73.4692)" class="st2 st3 st4">R</text>
<text transform="matrix(1.0498 0 0 1 48.5098 73.4692)" class="st2 st3 st4">O</text>
<text transform="matrix(1.0498 0 0 1 4.5229 82.4692)" class="st2 st3 st4">WH</text>
<text transform="matrix(1.0498 0 0 1 21.1099 82.4692)" class="st2 st3 st4">A</text>
<text transform="matrix(1.0498 0 0 1 26.8838 82.4692)" class="st2 st3 st4">T</text>
<text transform="matrix(1.0498 0 0 1 32.0278 82.4692)" class="st2 st3 st4">S</text>
<text transform="matrix(1.0498 0 0 1 37.4868 82.4692)" class="st2 st3 st4">APP</text>
</svg>
